<svg id="Capa_1" enable-background="new 0 0 512.012 512.012" height="512" viewBox="0 0 512.012 512.012" width="512" xmlns="http://www.w3.org/2000/svg"><g><path d="m444.27 263.272c-27.668-11.782-64.382-20.567-106.714-25.583-.379-7.065 2.274-14.003 7.414-19.049 50.879-49.948 50.724-131.747-.294-182.061-24.39-24.053-56.526-37.051-90.475-36.566-68.79.957-124.953 58.175-125.195 127.548-.121 34.691 13.49 67.138 38.326 91.364 4.987 4.864 7.538 11.7 7.13 18.763-42.335 5.016-79.052 13.801-106.721 25.584-44.578 18.984-53.936 41.333-53.936 56.74 0 14.43 8.253 35.495 47.574 53.899 23.491 10.995 54.973 19.732 91.626 25.48v8.621c0 57.346 46.206 104 103 104s103-46.654 103-104v-8.621c36.654-5.748 68.136-14.485 91.626-25.48 39.32-18.404 47.574-39.469 47.574-53.899.001-15.407-9.356-37.756-53.935-56.74zm-285.264-135.607c.185-53.116 43.077-96.924 95.613-97.655 25.857-.366 50.364 9.559 68.992 27.93 39.079 38.539 39.247 101.098.343 139.292-13.079 12.839-18.873 31.246-15.499 49.239 22.325 119.068-.221-1.178 10.427 55.612-13.984 4.423-38.667 10.928-62.877 10.928-24.212 0-48.897-6.506-62.877-10.928 2.237-11.932-5.099 27.195 10.426-55.607 3.387-18.065-2.323-36.393-15.275-49.026-18.968-18.505-29.365-43.288-29.273-69.785zm97 354.347c-40.252 0-73-33.196-73-74v-4.734c47.251 4.966 98.457 4.997 146 0v4.734c0 40.803-32.748 74-73 74zm86.017-110.469c-54.677 7.291-117.243 7.307-172.035 0-87.034-11.6-126.182-37.117-126.182-51.531 0-6.739 9.375-17.932 35.689-29.138 22.778-9.7 54.007-17.433 89.381-22.233l-7.614 40.607c-1.32 7.04 2.522 14.031 9.172 16.691 1.743.697 43.169 17.073 85.571 17.073s83.828-16.376 85.571-17.073c6.65-2.66 10.492-9.651 9.172-16.691l-7.614-40.607c35.375 4.799 66.603 12.533 89.381 22.233 26.314 11.206 35.689 22.399 35.689 29.138.002 14.414-39.146 39.931-126.181 51.531z"/></g></svg>