<svg id="Capa_1" enable-background="new 0 0 512 512" height="512" viewBox="0 0 512 512" width="512" xmlns="http://www.w3.org/2000/svg"><g><path d="m379.24 182.492c2.625-20.631-10.865-39.966-31.286-44.519l-10-40c-3.675-14.703-16.828-24.973-31.984-24.973-1.638 0-2.97-1.332-2.97-2.97v-22.03c0-25.935-20.961-48-47-48-26.038 0-47 22.064-47 48v22.03c0 1.638-1.332 2.97-2.97 2.97-15.156 0-28.31 10.27-31.985 24.974l-10 39.999c-20.458 4.562-33.906 23.927-31.286 44.52l12.407 97.483c4.052 31.835 3.955 64.114-.288 95.938l-11.219 84.138c-3.62 27.158 17.572 51.948 44.606 51.948h155.469c27.07 0 48.221-24.83 44.605-51.947l-11.219-84.138c-4.243-31.825-4.34-64.104-.288-95.938zm-176.092-77.242c.331-1.324 1.517-2.25 2.882-2.25 18.18 0 32.97-14.79 32.97-32.97v-22.03c0-9.589 7.944-18 17-18s17 8.411 17 18v22.03c0 18.18 14.79 32.97 32.97 32.97 1.365 0 2.551.925 2.882 2.249l7.936 31.751h-121.576zm146.332 73.455-12.407 97.483c-4.38 34.409-4.275 69.295.312 103.691l11.219 84.137c1.22 9.156-5.957 17.983-14.869 17.983h-155.47c-8.911 0-16.089-8.826-14.869-17.982l6.536-49.017h38.068c8.284 0 15-6.716 15-15s-6.716-15-15-15h-34.067c2.217-16.632 3.721-30.587 4.116-50h53.951c8.284 0 15-6.716 15-15s-6.716-15-15-15h-54.472c-.987-18.127-2.634-29.067-5.298-50h35.77c8.284 0 15-6.716 15-15s-6.716-15-15-15h-39.588l-5.892-46.294c-.79-6.208 4.041-11.706 10.31-11.706h166.34c6.257 0 11.101 5.486 10.31 11.705z"/></g></svg>