<svg id="Capa_1" enable-background="new 0 0 512.002 512.002" height="512" viewBox="0 0 512.002 512.002" width="512" xmlns="http://www.w3.org/2000/svg"><g><path d="m455.001 354.731v-129.007c21.51 10.29 33.103 18.475 33.242 18.574 6.766 4.864 16.129 3.265 20.936-3.421 4.837-6.726 3.306-16.099-3.42-20.936-.973-.699-24.291-17.305-66.833-33.807-36.395-14.117-94.248-30.774-167.925-32.808 0-44.691.128-42.102-.303-44.217 23.211-6.446 40.303-27.753 40.303-52.99 0-30.455-24.64-56-55-56-30.335 0-55 25.523-55 56 0 25.237 17.091 46.543 40.303 52.99-.431 2.117-.303-.474-.303 44.217-73.677 2.034-131.53 18.691-167.925 32.808-42.542 16.501-65.86 33.108-66.833 33.807-6.726 4.836-8.257 14.21-3.42 20.936s14.21 8.259 20.936 3.421c.308-.222 11.799-8.322 33.242-18.557v98.804c-32.376 9.873-56 40.013-56 75.575 0 43.561 35.439 79 79 79 21.596 0 41.757-8.544 56.77-24.06 7.384-7.631 4.706-20.34-5.145-24.332-12.529-5.079-20.625-17.093-20.625-30.608s8.096-25.53 20.625-30.608c9.841-3.989 12.535-16.694 5.146-24.332-13.377-13.825-30.845-22.096-49.771-23.738v-108.474c36.927-13.985 89.095-27.755 154.037-29.625-.061 1.182-.159-6.747 1.521 98.726-31.702-11.416-65.558 11.954-65.558 46.052 0 13.073 5.091 25.363 14.335 34.606l56 56c5.857 5.858 15.355 5.859 21.213 0l56-56c9.244-9.244 14.335-21.534 14.335-34.606 0-34.292-34.357-57.892-66.317-45.775-1.722-108.143-1.542-97.817-1.603-99.001 67.177 1.958 120.123 16.748 154.038 29.587v141.801l-52.571 63.726c-4.546 5.511-4.574 13.464-.067 19.008l56 68.882c6.002 7.384 17.284 7.374 23.277 0l56-68.882c4.507-5.544 4.478-13.497-.067-19.008zm-355.27 90.282c-32.273 14.187-68.729-9.58-68.729-44.892 0-35.38 36.532-59.046 68.729-44.893-24.985 24.575-24.966 65.23 0 89.785zm131.27-388.893c0-14.093 11.448-26 25-26s25 11.907 25 26c0 13.785-11.215 25-25 25s-25-11.214-25-25zm58.941 253.059c16.833 0 25.246 20.481 13.394 32.335l-45.394 45.393-45.394-45.393c-11.858-11.859-3.434-32.335 13.394-32.335 5.06 0 9.815 1.971 13.394 5.548l8 8c5.857 5.858 15.355 5.858 21.213 0l8-8c3.578-3.577 8.334-5.548 13.393-5.548zm150.059 163.927-36.612-45.034 36.612-44.38 36.612 44.38z"/></g></svg>