<svg id="Capa_1" enable-background="new 0 0 512 512" height="512" viewBox="0 0 512 512" width="512" xmlns="http://www.w3.org/2000/svg"><g><path d="m497 129h-18v-49c0-8.284-6.716-15-15-15h-80c-8.284 0-15 6.716-15 15v49h-50v-49c0-8.284-6.716-15-15-15h-80c-8.284 0-15 6.716-15 15v49h-17c-8.284 0-15 6.716-15 15v129h-34v-49c0-8.284-6.716-15-15-15h-80c-8.284 0-15 6.716-15 15v49h-18c-8.284 0-15 6.716-15 15v144c0 8.284 6.716 15 15 15h482c8.284 0 15-6.716 15-15 0-15.985 0-272.015 0-288 0-8.284-6.716-15-15-15zm-98-34h50v34h-50zm-160 0h50v34h-50zm-32 64h275v114c-15.254 0-259.784 0-275 0zm-144 80h50v34h-50zm-33 64h299v114h-299zm452 114h-123v-114h123z"/></g></svg>