<svg id="Capa_1" enable-background="new 0 0 511.921 511.921" height="512" viewBox="0 0 511.921 511.921" width="512" xmlns="http://www.w3.org/2000/svg"><g><path d="m457.239 284.836-59.785-24.448c-5.152-2.109-10.532-3.337-16.032-3.69 19.193-19.144 29.539-42.233 29.539-66.698 0-20.084-4.435-40.084-12.628-58.247 37.863-24.313 43.973-77.526 11.962-110.328-13.484-13.816-31.359-21.425-50.334-21.425-31.879 0-59.472 22.134-68.154 52.039-22.852-4.055-48.799-4.062-71.692 0-8.682-29.905-36.275-52.039-68.154-52.039-18.975 0-36.851 7.609-50.334 21.425-32.018 32.807-25.901 86.016 11.962 110.328-8.193 18.163-12.628 38.163-12.628 58.247 0 24.465 10.346 47.554 29.539 66.698-5.5.353-10.879 1.581-16.027 3.688l-59.791 24.45c-26.041 10.651-38.563 40.497-27.917 66.527 9.357 22.898 33.199 35.245 56.624 30.848-11 19.571-12.145 44.083-6.661 65.775 14.674 58.04 69.669 82.212 102.68 48.663 19.554 4.317 44.233 6.35 76.553 6.35s56.999-2.033 76.553-6.35c20.68 21.017 50.665 19.565 73.407.295 31.34-26.555 42.359-79.601 22.612-114.733 23.407 4.395 47.262-7.936 56.622-30.843 10.647-26.035-1.875-55.88-27.916-66.532zm-97.278-254.836c22.224 0 41 19.234 41 42 0 13.778-6.866 26.342-17.845 33.854-15.973-21.413-37.501-36.778-62.343-46.024 5.181-17.175 20.97-29.83 39.188-29.83zm-61.104 54.205c.742.271 1.514.476 2.307.628 31.126 8.863 51.134 26.822 63.33 46.82.682 1.394 16.467 25.022 16.467 58.348 0 25.76-17.784 46.661-39.851 60.46-53.19 32.002-125.275 28.125-170.251.028-21.738-13.218-39.898-34.795-39.898-60.489 0-16.315 4.13-37.098 15.227-56.26.465-.654.879-1.351 1.24-2.088 12.196-19.998 32.203-37.957 63.33-46.819.793-.152 1.565-.357 2.307-.628 26.059-6.923 59.436-7.002 85.792 0zm-187.896-12.205c0-22.766 18.776-42 41-42 18.218 0 34.007 12.655 39.188 29.83-24.837 9.244-46.367 24.607-62.343 46.024-10.979-7.512-17.845-20.076-17.845-33.854zm-56.427 268.012c-4.386-10.724.775-23.019 11.504-27.408 64.972-26.569 61.016-25.22 64.63-25.766-8.829 16.947-15.625 34.886-20.044 52.959l-28.688 11.726c-10.58 4.34-22.937-.584-27.402-11.511zm70.86 134.044c-18.649-15.801-27.357-48.8-18.236-72.134 2.128-5.446 7.147-14.947 16.844-17.398 16.491-4.169 36.035 14.48 42.67 40.725 4.365 17.267 2.251 34.294-4.402 45.112-.515.634-.97 1.324-1.381 2.048-9.307 12.815-23.29 11.99-35.495 1.647zm69.855-4.938c14.089-46.472-13.389-105.95-57.253-114.224 4.685-23.754 15.027-49.557 29.6-71.861 52.813 26.616 123.837 26.656 176.73 0 14.172 21.692 24.781 47.406 29.6 71.861-43.871 8.274-71.341 67.755-57.253 114.223-31.932 5.195-89.175 5.247-121.424.001zm210.86-28.484c-8.5 33.619-38.557 54.52-55.077 31.774-.411-.724-.865-1.414-1.38-2.048-6.653-10.818-8.767-27.845-4.402-45.112 6.289-24.875 25.374-45.095 42.67-40.725 9.696 2.451 14.715 11.953 16.843 17.398 7.249 18.545 1.346 38.813 1.346 38.713zm51.276-100.618c-4.444 10.875-16.763 15.87-27.419 11.499l-28.668-11.718c-4.417-18.068-11.214-36.01-20.05-52.967 3.582.529.049-.637 64.634 25.774 10.73 4.389 15.891 16.684 11.503 27.412z"/><path d="m212.321 129.65c-8.492-2.531-17.247 2.635-19.07 11.42-1.549 8.232 3.609 15.936 11.78 17.64 8.249 1.544 15.938-3.619 17.64-11.78 1.382-7.385-2.559-14.741-10.35-17.28z"/><path d="m289.251 146.93c1.684 8.116 9.35 13.332 17.64 11.78 8.116-1.692 13.333-9.344 11.78-17.64-1.877-8.999-10.855-13.92-19.06-11.42-7.733 2.465-11.758 9.854-10.36 17.28z"/><path d="m245.354 218.606c5.857 5.858 15.355 5.859 21.213 0l16-16c9.418-9.418 2.746-25.606-10.606-25.606h-32c-13.318 0-20.048 16.165-10.606 25.606z"/></g></svg>