<svg id="Capa_1" enable-background="new 0 0 512.059 512.059" height="512" viewBox="0 0 512.059 512.059" width="512" xmlns="http://www.w3.org/2000/svg"><g><path d="m508.358 126.201c-113.151-130.393-105.673-122.308-108.793-124.124-1.793-1.046-3.742-1.681-5.706-1.923-1.422-.173-274.098-.272-276.308.099-2.047.341-3.931 1.091-5.571 2.135-2.808 1.793 3.836-5.387-108.28 123.813-4.287 4.94-4.878 12.088-1.462 17.666l49 80c4.663 7.614 14.925 9.498 21.991 4.014l31.801-24.691v157.972c0 61.675 37.522 115.73 92.478 138.438 41.599 17.195 76.726 15.517 113.18 1.536 55.584-21.318 94.804-74.134 96.298-136.293.065-2.699.044 10.429.044-161.653l31.801 24.691c7.052 5.475 17.32 3.612 21.99-4.014l49-80c3.416-5.578 2.824-12.726-1.463-17.666zm-212.496-96.169c-4.468 28.486-21.171 51-39.833 51s-35.365-22.514-39.833-51zm-95.248 438.003c-38.882-19.645-65.585-60.348-65.585-106.874v-9.83c56.921 4.896 90.823 65.985 65.585 116.704zm-132.547-274.129-34.509-56.341 85.839-98.919c21.438 35.931 20.12 100.553-11.464 124.31-2.115 1.591 8.782-6.82-39.866 30.95zm160.774 284.612c32.644-70.597-16.213-152.405-93.812-157.259v-142.389c34.462-35.84 36.727-103.84 13.836-148.838h37.041c2.18 18.849 8.431 36.421 18.167 50.57 27.724 40.292 75.747 40.933 103.912 0 9.735-14.149 15.987-31.722 18.167-50.57h37.04c-22.914 45.043-20.598 113.025 13.836 148.837v142.39c-77.637 4.856-126.437 86.706-93.811 157.259-18.94 4.871-36.547 4.585-54.376 0zm82.603-10.486c-25.152-50.539 8.509-111.792 65.585-116.7v9.83c0 45.68-25.665 86.634-65.585 106.87zm132.547-274.126c-50.521-39.226-37.76-29.363-39.865-30.95-31.63-23.79-32.865-88.44-11.465-124.31l85.839 98.919z"/></g></svg>