<svg id="Capa_1" enable-background="new 0 0 511.993 511.993" height="512" viewBox="0 0 511.993 511.993" width="512" xmlns="http://www.w3.org/2000/svg"><g><path d="m508.549 354.447c-5.271-6.375-14.719-7.271-21.106-2.014-.131.108-8.537 6.954-24.442 16.238 0-86.155 0-206.606 0-292.677 0-8.284-6.716-15-15-15s-15 6.716-15 15v17h-354.001v-17c0-8.284-6.716-15-15-15s-15 6.716-15 15v292.677c-15.902-9.281-24.302-16.122-24.418-16.217-6.371-5.291-15.83-4.416-21.122 1.958s-4.416 15.831 1.958 21.123c.951.79 23.786 19.559 66.19 38.192 112.884 49.601 255.468 49.79 368.783 0 42.404-18.633 65.239-37.403 66.19-38.192 6.365-5.284 7.238-14.712 1.968-21.088zm-237.549-53.453v-42h66v42zm-96 0v-42h66v42zm-96 0v-42h66v42zm162-72h-66v-106h66zm30-106h66v106h-66zm96 136h66v42h-66zm66-30h-66v-106h66zm-288-106v106h-66v-106zm-66 261.168v-53.168h354v53.168c-107.597 49.109-246.409 49.106-354 0z"/></g></svg>