<svg id="Capa_1" enable-background="new 0 0 512 512" height="512" viewBox="0 0 512 512" width="512" xmlns="http://www.w3.org/2000/svg"><g><path d="m497 49h-482c-8.284 0-15 6.716-15 15v144c0 140.607 114.841 255 256 255s256-114.393 256-255c0-14.934 0-127.951 0-144 0-8.284-6.716-15-15-15zm-162 110h147v34h-130c-9.374 0-17-7.626-17-17zm147-80v50c-17.035 0-435.88 0-452 0v-50zm-452 80h147v17c0 9.374-7.626 17-17 17h-130zm17.667 136.203c70.12 3.671 127.204 57.39 136.118 126.018-61.414-20.671-111.08-66.953-136.118-126.018zm166.991 134.011c-5.592-91.49-81.786-164.214-174.658-164.214-.882 0-1.74.091-2.581.237-3.601-13.621-5.942-27.744-6.905-42.237h129.486c25.916 0 47-21.084 47-47v-17h98v17c0 25.916 21.084 47 47 47h129.486c-.963 14.493-3.304 28.616-6.905 42.237-.841-.146-1.699-.237-2.581-.237-92.872 0-169.066 72.724-174.658 164.214-27.293 5.044-55.34 5.053-82.684 0zm113.556-7.993c8.914-68.629 65.998-122.347 136.118-126.018-25.037 59.065-74.703 105.347-136.118 126.018z"/></g></svg>