<svg id="Capa_1" enable-background="new 0 0 512.015 512.015" height="512" viewBox="0 0 512.015 512.015" width="512" xmlns="http://www.w3.org/2000/svg"><g><path d="m433.483 326.598c44.083-3.826 78.524-34.021 78.524-70.587 0-36.548-34.407-66.731-78.458-70.581-8.092-20.354-19.721-39.297-34.542-56.015v-114.404c0-10.174-9.928-17.393-19.601-14.277l-96.763 31.18c-16.33-9.08-36.489-9.332-53.273 0l-96.763-31.18c-9.705-3.126-19.601 4.135-19.601 14.277v114.405c-14.597 16.496-26.375 35.61-34.515 56.011-44.065 3.84-78.485 34.028-78.485 70.584 0 36.554 34.417 66.741 78.479 70.583 14.509 36.564 39.542 66.89 70.902 87.964-25.746 20.269-44.897 47.213-54.915 77.782-3.187 9.727 4.098 19.675 14.257 19.675 6.308 0 12.18-4.012 14.251-10.333 9.463-28.879 29.023-53.863 55.457-71.076 49.918 22.149 107.642 22.034 157.824-1.299 27.478 17.228 47.759 42.677 57.49 72.375 2.071 6.322 7.942 10.334 14.251 10.334 10.172 0 17.44-9.962 14.257-19.674-10.344-31.571-30.313-59.157-57.235-79.592 30.481-21.265 54.498-51.174 68.459-86.152zm48.524-70.587c0 17.526-16.523 32.899-38.925 38.619 5.049-24.49 5.416-50.865.003-77.238 22.401 5.721 38.922 21.094 38.922 38.619zm-176.495-199.947 63.495-20.46v80.004l-60.587-18.934c4.139-12.989 3.416-27.59-2.908-40.61zm-24.505 23.947c0 5.98-2.139 11.625-5.766 15.951-10.025 12.066-28.445 12.062-38.466.002-3.549-4.227-5.768-9.858-5.768-15.953 0-13.785 11.215-25 25-25 13.786 0 25 11.215 25 25zm-138-44.407 63.495 20.46c-6.082 12.523-7.215 27.094-2.908 40.611l-60.587 18.934zm-113 220.407c0-17.523 16.517-32.894 38.914-38.617-5.214 25.361-5.225 51.818 0 77.233-22.397-5.722-38.914-21.093-38.914-38.616zm226 161c-25.458 0-49.84-5.958-71.596-16.744-.195-.101-.391-.2-.59-.292-94.116-47.136-118.517-171.227-48.466-250.545l85.885-26.839c20.252 16.567 49.283 16.567 69.535 0l85.887 26.84c26.051 29.449 40.345 67.085 40.345 106.58 0 88.776-72.224 161-161 161z"/><path d="m219.182 238.334c5.858-5.858 5.858-15.355 0-21.213-21.494-21.494-56.285-21.497-77.782 0-5.858 5.858-5.858 15.355 0 21.213 5.857 5.858 15.355 5.858 21.213 0 9.771-9.77 25.584-9.771 35.355 0 5.858 5.856 15.355 5.858 21.214 0z"/><path d="m371.183 217.12c-21.494-21.494-56.285-21.497-77.782 0-5.858 5.858-5.858 15.355 0 21.213 5.857 5.858 15.355 5.858 21.213 0 9.771-9.77 25.584-9.771 35.355 0 5.857 5.857 15.354 5.859 21.213 0 5.858-5.857 5.858-15.355.001-21.213z"/><path d="m284.999 317.404c-15.986 15.986-41.997 15.986-57.983 0-5.857-5.857-15.355-5.858-21.213 0-5.857 5.858-5.857 15.355 0 21.213 27.683 27.682 72.726 27.682 100.409 0 5.858-5.858 5.858-15.355 0-21.213-5.858-5.857-15.355-5.858-21.213 0z"/></g></svg>