<svg id="Capa_1" enable-background="new 0 0 512 512" height="512" viewBox="0 0 512 512" width="512" xmlns="http://www.w3.org/2000/svg"><g><path d="m497 241h-106v-226c0-8.284-6.716-15-15-15h-240c-8.284 0-15 6.716-15 15v226h-106c-8.284 0-15 6.716-15 15v81.6 106.756.056 52.588c0 8.284 6.716 15 15 15h241 241c8.284 0 15-6.716 15-15v-241c0-8.284-6.716-15-15-15zm-346-211h210v211h-105-105zm31.259 452-38.887-39.292 56.198-46.826 41.43 37.664v48.454zm58.741-88.999-30.91-28.101c-5.539-5.035-13.941-5.217-19.692-.425l-68.206 56.831-31.531-31.859c-5.092-5.145-13.13-5.919-19.111-1.842l-41.55 28.326v-58.501c5.903 1.04 11.913 1.57 18 1.57 51.7 0 94.62-38.29 101.904-88h91.096zm-211-122.001h89.451c-6.936 33.082-36.338 58-71.451 58-6.137 0-12.16-.748-18-2.229zm0 181.239 48.126-32.807 61.924 62.568h-110.05zm452 29.761h-211v-211h105 106z"/><path d="m281.257 167 8.32 29.121c1.883 6.589 7.888 10.883 14.415 10.883 1.364 0 2.752-.188 4.129-.581 7.965-2.276 12.577-10.578 10.302-18.543l-27.604-96.616c-4.419-15.464-18.737-26.264-34.819-26.264-16.083 0-30.4 10.8-34.818 26.264l-27.604 96.616c-2.276 7.965 2.336 16.268 10.302 18.543 7.966 2.277 16.268-2.337 18.543-10.302l8.32-29.121zm-25.257-72c2.759 0 5.215 1.853 5.973 4.505l10.713 37.495h-33.371l10.713-37.495c.757-2.652 3.213-4.505 5.972-4.505z"/><path d="m321.728 320c0 8.284 6.716 15 15 15h54.659l-74.775 87.238c-3.813 4.448-4.687 10.708-2.239 16.03 2.447 5.322 7.769 8.732 13.627 8.732h96c8.284 0 15-6.716 15-15s-6.716-15-15-15h-63.387l74.775-87.238c3.813-4.448 4.687-10.708 2.239-16.03-2.447-5.322-7.769-8.732-13.627-8.732h-87.272c-8.285 0-15 6.716-15 15z"/></g></svg>