<svg id="Capa_1" enable-background="new 0 0 512 512" height="512" viewBox="0 0 512 512" width="512" xmlns="http://www.w3.org/2000/svg"><g><path d="m128.005 81c-70.48 0-127.82 69.228-127.82 154.32 0 65.638 34.787 123.635 84.916 145.33l-26.662 52.542c-2.359 4.649-2.136 10.191.592 14.635 2.728 4.443 7.567 7.152 12.781 7.153l41.003.007v42.013c0 8.284 6.716 15 15 15s15-6.716 15-15v-42.007l40.997.007h.003c5.183 0 9.998-2.675 12.736-7.076s3.01-9.904.719-14.554l-26.064-52.896c21.612-9.52 40.901-26.137 55.484-48.101 18.137-27.316 28.125-61.784 28.125-97.053 0-40.613-12.803-78.933-36.05-107.901-24.022-29.934-56.255-46.419-90.76-46.419zm-31.76 343.984 18.363-36.188c9.031 1.142 18.202 1.122 27.226-.059l17.866 36.258zm50.349-67.64c-.001 0-.001 0-.002 0-12.002 3.021-24.697 3.062-36.718.119-.002 0-.004-.001-.006-.002-46.172-11.324-79.684-62.692-79.684-122.142 0-33.703 10.615-65.329 29.892-89.054 18.478-22.741 42.602-35.265 67.929-35.265 53.381 0 96.81 55.77 96.81 124.32 0 59.296-32.897 110.615-78.221 122.024z"/><path d="m511.815 155.325c0-40.608-12.984-79.112-36.563-108.42-24.333-30.247-56.74-46.905-91.252-46.905-69.926 0-126.814 69.678-126.814 155.325 0 40.616 12.803 78.938 36.051 107.906 13.659 17.019 29.973 29.683 47.849 37.45l-26.647 52.512c-2.359 4.649-2.136 10.191.592 14.635 2.728 4.443 7.567 7.152 12.781 7.153l41.003.007v122.012c0 8.284 6.716 15 15 15s15-6.716 15-15v-122.007l40.997.007h.003c5.183 0 9.998-2.675 12.736-7.076s3.01-9.904.719-14.554l-26.026-52.82c49.259-21.449 84.571-78.448 84.571-145.225zm-96.115 189.671-63.455-.011 18.359-36.18c4.418.556 8.887.845 13.397.845 4.675 0 9.29-.313 13.836-.907zm-12.789-67.716c-.219.05-.438.1-.656.16-5.971 1.457-12.076 2.208-18.254 2.208-53.384 0-96.814-55.771-96.814-124.324 0-33.901 10.475-65.752 29.493-89.685 18.263-22.982 42.171-35.639 67.32-35.639 25.246 0 49.352 12.682 67.877 35.709 19.306 23.998 29.938 55.823 29.938 89.615 0 33.705-10.616 65.333-29.892 89.059-13.803 16.99-30.759 28.275-49.012 32.897z"/></g></svg>