<svg id="Capa_1" enable-background="new 0 0 512 512" height="512" viewBox="0 0 512 512" width="512" xmlns="http://www.w3.org/2000/svg"><g><path d="m497 416.999h-10v-163c0-24.813-20.187-45-45-45h-139v-73c0-8.284-6.716-15-15-15h-17v-19.689c37.732-9.026 41.302-50.501 18.885-73.102l-23.157-23.693c-5.884-6.02-15.581-6.019-21.462.007l-22.537 23.09c-9.324 9.067-14.456 21.205-14.456 34.206 0 20.015 12.665 34.694 32.728 39.493v19.689h-17c-8.284 0-15 6.716-15 15v73h-139.001c-24.813 0-45 20.187-45 45v163h-10c-8.284 0-15 6.716-15 15v65c0 8.284 6.716 15 15 15h482c8.284 0 15-6.716 15-15v-65c0-8.285-6.716-15.001-15-15.001zm-258.728-355.182c0-4.855 1.933-9.39 5.443-12.768.249-.239.137-.13 12.291-12.583l12.468 12.756c3.49 3.49 5.253 7.955 5.253 12.594 0 2.766 0 11.182-17.728 11.182s-17.727-8.415-17.727-11.181zm.728 89.182h34v58h-34zm-169 88h372c8.271 0 15 6.729 15 15v48.285c-3.435 1.756-6.556 2.715-9 2.715-7.261 0-17.575-7.846-21.394-11.606-2.087-2.087-21.017-20.394-42.606-20.394s-40.52 18.306-42.567 20.354c-3.857 3.8-14.172 11.646-21.433 11.646s-17.575-7.846-21.394-11.606c-2.087-2.087-21.017-20.394-42.606-20.394s-40.52 18.306-42.567 20.354c-3.857 3.8-14.172 11.646-21.433 11.646s-17.575-7.846-21.394-11.606c-2.087-2.087-21.017-20.394-42.606-20.394s-40.52 18.306-42.567 20.354c-3.857 3.8-14.172 11.646-21.433 11.646-2.444 0-5.565-.96-9-2.715v-48.285c0-8.271 6.729-15 15-15zm-15 95.004c3.041.655 6.044.996 9 .996 21.59 0 40.52-18.306 42.567-20.354 3.857-3.8 14.172-11.646 21.433-11.646s17.575 7.846 21.394 11.606c2.087 2.087 21.017 20.394 42.606 20.394s40.52-18.306 42.567-20.354c3.857-3.8 14.172-11.646 21.433-11.646s17.575 7.846 21.394 11.606c2.087 2.087 21.017 20.394 42.606 20.394s40.52-18.306 42.567-20.354c3.857-3.8 14.172-11.646 21.433-11.646s17.575 7.846 21.394 11.606c2.087 2.087 21.017 20.394 42.606 20.394 2.956 0 5.959-.341 9-.996v82.996h-402zm427 147.996h-452v-35h452z"/></g></svg>