<svg id="Capa_1" enable-background="new 0 0 512.179 512.179" height="512" viewBox="0 0 512.179 512.179" width="512" xmlns="http://www.w3.org/2000/svg"><g><path d="m462.534 443.956-55.445-198.016v-73.51c0-4.371-1.907-8.525-5.221-11.375-33.106-28.461-30.045-104.575.828-135.449 9.417-9.417 2.745-25.606-10.607-25.606-15.054 0-256.026 0-272 0-13.318 0-20.048 16.165-10.606 25.606 30.923 30.924 33.869 107.043.828 135.449-3.314 2.85-5.221 7.003-5.221 11.375v73.51l-55.445 198.016c-2.143 7.653 2.056 15.65 9.572 18.231 24.676 8.474 99.195 34.067 99.599 34.204 61.765 20.588 130.02 21.508 194.547 0 .334-.114 19.07-6.549 99.599-34.204 7.516-2.582 11.715-10.578 9.572-18.231zm-166.612-413.956c-4.468 28.486-21.171 51-39.833 51s-35.365-22.514-39.833-51zm-147.069 0h37.112c2.18 18.849 8.431 36.421 18.167 50.57 27.724 40.292 75.747 40.933 103.912 0 9.736-14.149 15.987-31.722 18.167-50.57h37.112c-22.81 45.046-20.859 112.947 13.764 148.867v59.618c-10.765 5.071-20.561 9.311-34 13.745v-20.23c0-10.226-10.032-17.464-19.743-14.23l-67.257 22.419-67.257-22.419c-9.701-3.234-19.743 3.997-19.743 14.23v20.23c-13.111-4.326-22.825-8.481-34-13.745v-59.618c34.581-35.874 36.616-103.742 13.766-148.867zm50.236 261.188v-38.377l42 14v10.377zm72-24.376 42-14v38.377l-42-14zm122.332 184.102-18.964-63.224c-2.38-7.935-10.742-12.44-18.677-10.058-7.935 2.38-12.438 10.742-10.058 18.677l19.304 64.356c-25.15 8.637-51.12 18.717-93.936 21.005v-97.67c0-8.284-6.716-15-15-15s-15 6.716-15 15v97.671c-42.73-2.284-69.697-12.681-93.936-21.005l19.304-64.356c2.38-7.935-2.123-16.297-10.058-18.677-7.936-2.381-16.297 2.124-18.677 10.058l-18.964 63.224-36.407-12.503 47.411-169.324c12.743 5.738 25.917 10.604 39.328 14.557v28.355c0 8.33 6.765 15 15.001 15 3.462 0-1.032 1.155 71.999-23.188 73.029 24.343 68.535 23.188 71.997 23.188 8.23 0 15.001-6.665 15.001-15v-28.355c13.409-3.953 26.583-8.819 39.328-14.558l47.411 169.324z"/></g></svg>