<svg id="Capa_1" enable-background="new 0 0 512 512" height="512" viewBox="0 0 512 512" width="512" xmlns="http://www.w3.org/2000/svg"><g><path d="m477.412 202.907c-6.852-43.349-36.853-66.747-78.837-67.011-2.99-21.935-21.833-38.896-44.575-38.896h-20.855c10.849-49.394-26.89-97-77.145-97-50.331 0-87.98 47.671-77.145 97h-20.855c-22.742 0-41.585 16.961-44.575 38.896-41.825.263-71.961 23.51-78.837 67.011-19.224 5.577-34.588 23.273-34.588 45.093v40c0 8.284 6.716 15 15 15h65c8.284 0 15-6.716 15-15v-40c0-19.982-12.54-37.08-30.159-43.868 5.336-25.97 22.172-37.948 48.159-38.258v90.126c0 8.284 6.716 15 15 15h33v35c0 15.216 7.598 28.682 19.192 36.831-13.403 15.537-29.959 39.704-34.173 67.802-19.014 5.259-33.019 22.703-33.019 43.367v43c0 8.284 6.716 15 15 15h64c8.284 0 15-6.716 15-15v-43c0-19.802-12.863-36.646-30.667-42.646 5.719-27.788 28.349-51.671 37.461-60.354h84.413c9.111 8.683 31.741 32.566 37.461 60.354-17.805 6-30.668 22.844-30.668 42.646v43c0 8.284 6.716 15 15 15h64c8.284 0 15-6.716 15-15v-43c0-20.664-14.005-38.108-33.019-43.368-4.214-28.098-20.771-52.264-34.173-67.802 11.594-8.148 19.192-21.614 19.192-36.83v-35h33c8.284 0 15-6.716 15-15v-90.125c26.969.325 43.006 13.19 48.158 38.258-17.619 6.787-30.158 23.885-30.158 43.867v40c0 8.284 6.716 15 15 15h65c8.284 0 15-6.716 15-15v-40c0-21.81-15.354-39.513-34.588-45.093zm-412.412 70.093h-35v-25c0-9.056 8.411-17 18-17 9.374 0 17 7.626 17 17zm191-243c38.022 0 61.07 42.348 42.46 74.482-18.289 31.58-64.414 33.776-84.917.005-.001-.002-.002-.003-.003-.005-18.605-32.124 4.428-74.482 42.46-74.482zm-79 452h-34v-28c0-8.271 6.729-15 15-15h4c8.271 0 15 6.729 15 15zm192 0h-34v-28c0-8.271 6.729-15 15-15h4c8.271 0 15 6.729 15 15zm-48-176c0 8.271-6.729 15-15 15h-100c-8.271 0-15-6.729-15-15v-35h130zm-178-65c0-5.059 0 4.957 0-99 0-8.271 6.729-15 15-15h34.497c31.596 42.578 95.356 42.651 127.006 0h34.497c8.271 0 15 6.729 15 15v99c-7.17 0-212.504 0-226 0zm339 32h-35v-25c0-9.374 7.626-17 17-17 9.589 0 18 7.944 18 17z"/><path d="m241.29 82.93c1.672 8.057 9.292 13.343 17.64 11.78 8.061-1.681 13.343-9.29 11.78-17.64-1.838-8.814-10.602-13.944-19.07-11.42-7.876 2.567-11.723 9.984-10.35 17.28z"/></g></svg>