<svg id="Capa_1" enable-background="new 0 0 511.943 511.943" height="512" viewBox="0 0 511.943 511.943" width="512" xmlns="http://www.w3.org/2000/svg"><g><path d="m408.639 0h-192c-8.284 0-15 6.716-15 15v225.718l-80.792 80.793c-43.393 43.392-43.385 114.592 0 157.978 43.273 43.272 113.693 43.285 157.015-.038 70.485-70.984-78.911 79.468 141.421-142.421 2.791-2.81 4.356-6.609 4.356-10.569v-311.461c0-8.284-6.716-15-15-15zm-15 30v51h-162v-51zm-166.394 227.538c2.813-2.813 4.394-6.628 4.394-10.606v-135.932h162v123.188c-45.281 7.214-80 46.532-80 93.812 0 20.005 6.186 39.108 17.617 55.103l-58.942 59.359-114.997-114.996zm-85.186 200.738c-29.847-29.848-31.729-77.231-5.649-109.291l114.48 114.48c-31.703 26.205-78.998 24.642-108.831-5.189zm210.784-96.913c-22.413-37.355-2.087-86.424 40.795-96.596v55.512z"/></g></svg>