<svg id="Capa_1" enable-background="new 0 0 511.982 511.982" height="512" viewBox="0 0 511.982 511.982" width="512" xmlns="http://www.w3.org/2000/svg"><g><path d="m511.786 375.295c.511-2.919 1.877 19.454-24.056-337.221-.344-6.715-5.642-12.803-12.84-13.828-.403-.057-335.039-24.276-337.052-24.129-5.603.401-10.741 3.99-12.891 9.538-.526 1.357 8.226-32.427-124.456 483.448-3.179 12.364 9.647 22.875 21.179 17.167 499.839-128.377 479.96-123.174 481.678-123.974 4.325-2.011 7.562-6.054 8.438-11.001zm-468.57 72.135 103.602-402.814 147.854 151.357c-13.398 13.398-242.353 242.354-251.456 251.457zm435.978-113.044-142.076-138.429 123.064-123.067zm-163.306-159.628-138.602-141.886 261.661 18.827zm-251.017 293.443 251.028-251.028 151.53 147.636z"/></g></svg>