<svg id="Capa_1" enable-background="new 0 0 512.267 512.267" height="512" viewBox="0 0 512.267 512.267" width="512" xmlns="http://www.w3.org/2000/svg"><g><path d="m506.326 200.647c0-.001-.001-.005-.001-.005-10.098-45.381-34.433-88.365-70.374-124.306-147.054-147.058-373.64-66.093-425.583 110.679-11.98 40.772-13.511 83.875-4.427 124.644 0 .001.001.005.001.005 20.601 92.575 101.96 174.05 194.681 194.68 131.516 29.304 263.686-53.129 301.275-181.054 11.982-40.772 13.512-83.874 4.428-124.643zm-397.879 224.405 316.587-316.586c23.371 26.244 40.108 55.951 49.052 87.103-110.742 53.819-224.671 167.7-278.536 278.535-31.15-8.943-60.858-25.68-87.103-49.052zm-70.266-108.315c110.742-53.819 224.671-167.7 278.536-278.535 31.151 8.943 60.858 25.68 87.104 49.052l-316.587 316.586c-23.371-26.245-40.108-55.952-49.053-87.103zm248.162-284.816c-51.207 100.447-153.814 203.145-254.447 254.444-19.301-144.76 109.122-273.766 254.447-254.444zm-60.421 448.468c51.206-100.448 153.813-203.148 254.449-254.449 19.365 145.239-109.641 273.707-254.449 254.449z"/></g></svg>