<svg id="Capa_1" enable-background="new 0 0 512.002 512.002" height="512" viewBox="0 0 512.002 512.002" width="512" xmlns="http://www.w3.org/2000/svg"><g><path d="m497.966 139.189c15.824-35.225 7.886-78.487-19.724-106.096-27.445-27.445-70.122-34.635-105.023-18.79-27.672-19.099-64.429-19.075-92.079.098-57.127-26.426-124.108 10.613-130.901 75.262-1.84 17.511 1.104 35.098 8.333 50.543-18.902 27.694-18.758 64.373.469 91.927-14.627 31.658-10.191 68.772 11.48 96.135l-54.918 54.918c-12.2-9.469-27.372-15.185-43.602-15.185-39.028 0-72 32.972-72 72s32.972 72 72 72c52.528 0 89.809-57.601 63.177-105.964l57.54-57.54c27.553 17.923 61.781 19.687 90.536 5.991 27.125 17.559 62.119 17.326 89.009-.665 35.665 16.625 79.337 9.301 106.979-18.341 27.135-27.135 35.163-68.861 18.451-104.759 18.774-27.197 19.286-63.621.273-91.534zm-425.965 342.813c-22.766 0-42-19.234-42-42s19.234-42 42-42 42 19.234 42 42-19.234 42-42 42zm396.735-262.947c-4.504 4.951-5.183 12.288-1.663 17.981 15.338 24.812 11.619 56.572-9.044 77.235-20.382 20.382-54.46 24.393-79.296 9.015-5.616-3.478-12.846-2.872-17.805 1.492-19.184 16.88-47.609 16.837-66.719.544-4.974-4.24-12.135-4.779-17.693-1.298-24.875 15.575-56.763 11.936-77.551-8.851-20.527-20.528-24.333-52.147-9.255-76.893 3.479-5.709 2.759-13.031-1.764-17.954-17.77-19.339-17.937-49.058-.37-68.587 4.47-4.969 5.112-12.297 1.575-17.969-15.449-24.771-11.618-58.934 8.912-79.464 20.529-20.527 52.151-24.332 76.898-9.25 5.693 3.469 12.993 2.766 17.919-1.73 19.461-17.764 49.192-17.726 68.614-.117 4.91 4.451 12.159 5.154 17.831 1.727 24.684-14.91 57.363-10.969 77.704 9.371 20.594 20.594 25.046 54.439 10.357 78.726-3.41 5.638-2.741 12.842 1.649 17.756 17.391 19.464 17.277 48.945-.299 68.266z"/><path d="m249.499 105.59c-43.261 43.261-43.261 113.652 0 156.914 43.26 43.261 113.652 43.263 156.914 0 43.261-43.261 43.261-113.652 0-156.914-43.261-43.261-113.653-43.262-156.914 0zm135.701 135.701c-31.638 31.637-82.846 31.641-114.488 0-31.637-31.638-31.641-82.846 0-114.488 31.638-31.637 82.846-31.641 114.488 0 31.637 31.638 31.64 82.846 0 114.488z"/></g></svg>