<svg id="Capa_1" enable-background="new 0 0 512 512" height="512" viewBox="0 0 512 512" width="512" xmlns="http://www.w3.org/2000/svg"><g><path d="m487 263v-48c0-9.28-4.914-16.764-13.144-20.019-5.009-1.981-10.171-1.981-14.318-1.981h-407.077c-25.481 0-27.461 17.604-27.461 23v48c0 4.437 1.352 17.124 16 21.493v134.014c-14.648 4.37-16 17.056-16 21.493v48c0 5.396 1.98 23 27.461 23h407.077c18.97 0 27.461-12.054 27.461-24v-48c0-10.001-5.718-18.262-16-20.927v-133.85c10.965-3.778 16.001-13.029 16.001-22.223zm-432-40h402v34c-13.104 0-379.06 0-402 0zm386 194h-370v-130h370zm16 65h-402v-34h402z"/><path d="m146.133 366.783h29.867c8.284 0 15-6.716 15-15s-6.716-15-15-15h-29.867c-8.284 0-15 6.716-15 15s6.716 15 15 15z"/><path d="m241.29 354.71c1.757 8.468 9.909 13.392 17.64 11.78 8.249-1.72 13.312-9.458 11.78-17.64-1.898-9.099-11.079-13.957-19.07-11.41-7.075 2.148-11.849 9.304-10.35 17.27z"/><path d="m336 366.783h29.867c8.284 0 15-6.716 15-15s-6.716-15-15-15h-29.867c-8.284 0-15 6.716-15 15s6.716 15 15 15z"/><path d="m292.768 130.7c3.606 0 7.225-1.293 10.101-3.915l110.472-100.7c6.123-5.581 6.562-15.068.98-21.19-5.58-6.122-15.067-6.561-21.19-.98l-110.472 100.7c-10.162 9.262-3.474 26.085 10.109 26.085z"/><path d="m197.393 138.606c5.857 5.858 15.355 5.859 21.213 0 5.858-5.858 5.858-15.355 0-21.213l-80-80c-5.857-5.858-15.355-5.858-21.213 0s-5.858 15.355 0 21.213z"/></g></svg>