<svg id="Capa_1" enable-background="new 0 0 512 512" height="512" viewBox="0 0 512 512" width="512" xmlns="http://www.w3.org/2000/svg"><g><path d="m111 178.301v-18.301c0-20.861-13.623-38.336-32-44.538v-100.462c0-8.284-6.716-15-15-15s-15 6.716-15 15v100.469c-18.58 6.276-32 23.86-32 44.531v325c0 14.888 12.112 27 27 27h168c14.888 0 27-12.112 27-27v-197c0-67.883-60.699-120.088-128-109.699zm-64-18.301c0-15.012 18.247-22.737 28.993-11.994 3.229 3.229 5.007 7.489 5.007 11.994v27.457c-12.868 6.04-24.393 14.476-34 24.734zm0 322v-83h162v83zm162-113h-162c0-12.625 0-72.346 0-81 0-44.762 36.438-81 81-81 44.664 0 81 36.336 81 81z"/><path d="m367 178.301v-18.301c0-20.866-13.628-38.338-32-44.538v-100.462c0-8.284-6.716-15-15-15s-15 6.716-15 15v100.469c-18.58 6.276-32 23.86-32 44.531v325c0 14.888 12.112 27 27 27h168c14.888 0 27-12.112 27-27v-197c0-67.887-60.703-120.087-128-109.699zm98 109.699v81h-162c0-12.625 0-72.346 0-81 0-34.88 22.162-64.681 53.143-76.063.462-.133.914-.287 1.357-.462 52.466-18.223 107.5 20.907 107.5 76.525zm-162-128c0-15.054 18.271-22.717 28.993-11.993 3.229 3.228 5.007 7.488 5.007 11.993v27.457c-12.868 6.039-24.393 14.476-34 24.734zm0 322v-83h162v83z"/><path d="m142.71 253.07c-1.877-8.999-10.855-13.92-19.06-11.42-8.414 2.682-12.263 11.118-10 18.71 2.842 8.72 11.381 12.174 18.71 9.99 7.898-2.575 11.714-9.993 10.35-17.28z"/><path d="m174.71 309.07c-1.838-8.814-10.602-13.944-19.07-11.42-8.592 2.8-12.206 11.273-9.99 18.71 2.826 8.67 11.43 12.205 18.7 9.99 7.745-2.47 11.751-9.851 10.36-17.28z"/><path d="m110.71 309.07c-1.858-8.908-10.685-13.919-19.07-11.42-8.592 2.8-12.206 11.273-9.99 18.71 2.814 8.635 11.395 12.215 18.7 9.99 7.74-2.468 11.76-9.803 10.36-17.28z"/><path d="m375.67 268.47c7.04 4.635 16.207 2.683 20.8-4.14 7.316-11.08-2.154-25.53-15.4-23.04-13.179 2.738-16.396 19.764-5.4 27.18z"/><path d="m401.29 314.93c1.673 8.061 9.298 13.343 17.64 11.78 7.977-1.662 13.359-9.208 11.78-17.64-1.859-8.869-10.654-13.931-19.07-11.42-7.905 2.576-11.713 9.997-10.35 17.28z"/><path d="m356.35 297.65c-8.239-2.51-17.2 2.46-19.06 11.42-1.541 8.232 3.6 15.933 11.779 17.64 8.31 1.554 15.941-3.67 17.641-11.78 1.404-7.502-2.703-14.836-10.36-17.28z"/></g></svg>