<svg id="Capa_1" enable-background="new 0 0 512 512" height="512" viewBox="0 0 512 512" width="512" xmlns="http://www.w3.org/2000/svg"><g><path d="m496 482h-18.194l-38.858-468.241c-.644-7.776-7.144-13.759-14.948-13.759h-336c-7.804 0-14.304 5.983-14.948 13.759l-38.858 468.241h-18.194c-8.284 0-15 6.716-15 15s6.716 15 15 15h72c8.284 0 15-6.716 15-15s-6.716-15-15-15h-23.704l37.511-452h59.193v378c0 8.284 6.716 15 15 15h160c8.284 0 15-6.716 15-15 0-11.785 0-368.427 0-378h59.193l37.511 452h-23.704c-8.284 0-15 6.716-15 15s6.716 15 15 15h72c8.284 0 15-6.716 15-15s-6.716-15-15-15zm-175-89h-130v-50h130zm-128.923-80c4.383-30.199 22.775-58 63.923-58s59.54 27.801 63.923 58zm128.923-63.536c-15.354-14.93-36.836-24.464-65-24.464s-49.646 9.534-65 24.464v-219.464h130z"/></g></svg>