<svg id="Capa_1" enable-background="new 0 0 512.427 512.427" height="512" viewBox="0 0 512.427 512.427" width="512" xmlns="http://www.w3.org/2000/svg"><g><path d="m448.246 292.965c-14.141-11.272-32.378-18.11-52.053-19.637-6.607-14.15-15.14-27.225-25.472-39.03v-98.298c0-10.098-9.794-17.313-19.438-14.329l-84.178 26.073c-14.451-7.798-32.119-8.003-46.934-.052l-84.013-26.021c-9.647-2.986-19.438 4.234-19.438 14.329v98.383c-10.568 12.471-17.75 26.072-23.267 38.816-20.513 1.174-39.591 8.075-54.259 19.766-34.844 27.773-35.922 75.831.286 103.291 14.425 10.941 33.328 17.413 53.773 18.546 12.445 27.155 31.769 50.4 56.369 67.607 86.07 60.203 202.559 25.907 246.42-67.708 19.734-1.412 37.929-7.834 51.919-18.444 36.19-27.447 35.15-75.503.285-103.292zm-107.526-73.244-49.178-15.231c2.909-10.728 2.136-22.083-2.151-32.243l51.329-15.898zm-77.444-28.219c0 10.856-8.832 19.689-19.688 19.689s-19.688-8.833-19.688-19.689 8.832-19.688 19.688-19.688 19.688 8.832 19.688 19.688zm-116.556-35.153 51.093 15.824c-4.282 10.102-5.127 21.511-2.159 32.39l-48.933 15.154v-63.368zm-104 188.651c0-18.743 16.751-34.654 39.8-40.042-6.141 25.583-6.162 52.714-.146 78.26-20.348-4.332-39.654-17.765-39.654-38.218zm202.17 137.36c-98.394 0-162.39-99.729-127.509-188.474 5.176-13.172 11.904-28.141 22.735-40.718l72.865-22.565c18.015 14.132 43.263 14.134 61.284-.057l73.126 22.648c22.025 24.75 34.498 56.805 34.498 91.166.001 74.789-62.744 138-136.999 138zm184.942-110.006c-6.257 4.746-13.945 8.241-22.506 10.342 6.201-25.702 5.943-52.28.086-77.11 37.58 10.226 49.964 45.877 22.42 66.768z"/><path d="m190.98 341.675c-7.694 7.694-20.148 7.695-27.844 0-5.856-5.857-15.354-5.858-21.213 0-5.858 5.858-5.858 15.355 0 21.213 19.416 19.418 50.849 19.42 70.27 0 5.858-5.858 5.858-15.355 0-21.213-5.857-5.857-15.356-5.858-21.213 0z"/><path d="m322.797 341.675c-7.676 7.677-20.168 7.677-27.844 0-5.857-5.857-15.355-5.857-21.213 0-5.858 5.858-5.858 15.355 0 21.213 19.373 19.372 50.896 19.373 70.27 0 5.858-5.858 5.858-15.355 0-21.213-5.856-5.857-15.354-5.858-21.213 0z"/><path d="m258.55 422.6c-1.545-8.252-10.161-14.06-19.061-11.42-8.587 2.799-12.217 11.269-9.989 18.71 2.318 7.634 10.449 12.452 18.699 9.99 8.103-2.58 11.765-10.47 10.351-17.28z"/><path d="m325.55 95h50.171c8.284 0 15-6.716 15-15s-6.716-15-15-15h-19.645l31.519-40.835c7.6-9.843.562-24.165-11.874-24.165h-45.61c-8.284 0-15 6.716-15 15s6.716 15 15 15h15.084l-31.519 40.835c-7.6 9.843-.561 24.165 11.874 24.165z"/><path d="m484.854 121h-31.337l42.327-46.937c8.705-9.623 1.828-25.063-10.99-25.063h-59.394c-8.284 0-15 6.716-15 15s6.716 15 15 15h25.598l-42.461 46.937c-8.71 9.627-1.854 25.063 11.123 25.063h65.134c8.284 0 14.866-6.716 14.866-15s-6.582-15-14.866-15z"/></g></svg>