<svg id="Capa_1" enable-background="new 0 0 512.063 512.063" height="512" viewBox="0 0 512.063 512.063" width="512" xmlns="http://www.w3.org/2000/svg"><g><path d="m280.063 103.378h61.167c8.284 0 15-6.716 15-15s-6.716-15-15-15h-29.13l40.651-48.756c8.124-9.743 1.185-24.605-11.521-24.605h-55.606c-8.284 0-15 6.716-15 15s6.716 15 15 15h23.57l-40.651 48.756c-8.125 9.743-1.186 24.605 11.52 24.605z"/><path d="m399.993 150.765h40.07c8.284 0 15-6.716 15-15s-6.716-15-15-15h-7.9l19.39-23.105c8.169-9.735 1.237-24.643-11.49-24.643h-36.427c-8.284 0-15 6.716-15 15s6.716 15 15 15h4.257l-19.39 23.105c-8.169 9.735-1.238 24.643 11.49 24.643z"/><path d="m376.063 185.017c-74.439 0-135 60.561-135 135 0 20.16 4.45 39.298 12.406 56.495-44.02-4.586-76.363-43.473-72.65-87.745 2.092-24.949 15.276-47.208 36.172-61.068 10.288-6.823 8.36-22.511-3.279-26.638-98.246-34.831-204.407 32.914-213.15 137.16-7.372 87.91 58.682 165.904 146.599 173.276 62.11 5.213 121.379-27.057 151.937-80.634 21.848 15.216 48.38 24.154 76.965 24.154 74.991 0 136-60.561 136-135s-61.009-135-136-135zm-226.395 296.585c-71.374-5.987-125.2-69.465-119.21-140.874 6.186-73.764 73.518-127.234 146.864-117.687-34.603 40.233-36.707 101.57-.465 144.446 24.486 28.969 60.382 42.317 95.609 38.987 1.151 1.377 2.326 2.734 3.53 4.064-23.474 46.23-73.168 75.513-126.328 71.064zm226.395-56.585c-24.252 0-46.607-8.268-64.402-22.129 1.771-5.243 3.289-10.616 4.525-16.113 2.709-12.042-9.539-22.05-20.808-16.962-3.144 1.42-6.374 2.633-9.669 3.635-9.298-15.663-14.646-33.933-14.646-53.431 0-57.897 47.103-105 105-105 58.449 0 106 47.103 106 105s-47.551 105-106 105z"/><path d="m415.063 305.017h-24v-41c0-8.284-6.716-15-15-15s-15 6.716-15 15v56c0 8.284 6.716 15 15 15h39c8.284 0 15-6.716 15-15s-6.716-15-15-15z"/></g></svg>