<svg id="Capa_1" enable-background="new 0 0 512 512" height="512" viewBox="0 0 512 512" width="512" xmlns="http://www.w3.org/2000/svg"><g><path d="m438.582 338.229c-3.682-61.463-32.383-109.646-84.024-142.756l23.962-52.473h29.48c8.284 0 15-6.716 15-15s-6.716-15-15-15h-88c-8.284 0-15 6.716-15 15s6.716 15 15 15h25.54l-17.285 37.851c-54.267-26.093-117.3-34.237-161.254-36.423v-114.428h61.481c8.284 0 15-6.716 15-15s-6.716-15-15-15h-160c-8.284 0-15 6.716-15 15s6.716 15 15 15h68.518v179.744c-76.246 7.554-136 72.056-136 150.256 0 83.813 67.738 152 151 152 83.482 0 152-68.533 152-152 0-78.234-60.202-142.756-137-150.265v-35.271c66.609 3.463 146.257 19.425 195.281 64.582 27.908 25.691 43.424 59.057 46.243 99.334-40.615 7.322-71.524 42.929-71.524 85.62 0 48.175 38.99 88 87 88 47.981 0 87-39.799 87-88 0-43.003-31.364-78.814-72.418-85.771zm-164.582 21.771c0 67.271-54.729 122-122 122-66.72 0-121-54.729-121-122 0-66.72 54.28-121 121-121 67.271 0 122 54.28 122 121zm150 122c-31.43 0-57-26.019-57-58 0-31.386 25.501-56.927 56.871-56.997 32.526.183 57.129 26.283 57.129 56.997 0 31.981-25.57 58-57 58z"/><path d="m438.71 421.069c-1.869-8.952-10.795-13.929-19.06-11.42-8.603 2.751-12.236 11.363-10 18.7 2.73 8.555 11.342 12.249 18.7 10 7.672-2.437 11.762-9.781 10.36-17.28z"/><path d="m152 313c-25.916 0-47 21.084-47 47s21.084 47 47 47c20.671 0 38.255-13.42 44.531-32h27.469c8.284 0 15-6.716 15-15s-6.716-15-15-15h-27.469c-6.276-18.58-23.86-32-44.531-32zm0 64c-9.374 0-17-7.626-17-17s7.626-17 17-17 17 7.626 17 17-7.626 17-17 17z"/></g></svg>