<svg id="Capa_1" enable-background="new 0 0 511.968 511.968" height="512" viewBox="0 0 511.968 511.968" width="512" xmlns="http://www.w3.org/2000/svg"><g><path d="m496.968 111.972h-232.845c-7.094-10.131-22.018-28.593-46.498-45.893-32.212-22.764-88.065-48.061-171.228-39.31-8.239.867-14.214 8.249-13.347 16.488.867 8.238 8.248 14.206 16.488 13.348 58.675-6.18 108.982 4.96 149.526 33.102 10.837 7.522 19.495 15.325 26.167 22.266h-210.231c-8.284 0-15 6.716-15 15 0 107.94 48.103 201.213 117.477 254.457-8.07 11.111-12.509 25.785-12.509 41.544 0 37.084 23.131 64 55 64h192c31.869 0 55-26.916 55-64 0-16.116-4.475-30.578-12.476-41.562 69.272-53.172 117.476-146.361 117.476-254.439 0-8.285-6.716-15.001-15-15.001zm-15.337 30c-.645 14.321-2.223 28.345-4.635 42.001h-442.025c-2.411-13.656-3.989-27.68-4.634-42.001zm-104.663 281.001c0 12.628-5.266 34-25 34h-192c-19.735 0-25-21.372-25-34 0-8.722 2.066-17.965 7.397-24.733 72.061 42.584 155.944 42.126 227.243-.018 4.69 5.866 7.36 14.571 7.36 24.751zm-11.766-57.064c-1.763.715-3.396 1.765-4.797 3.125-64.005 40.46-142.331 42.072-208.88-.014-1.393-1.35-3.016-2.393-4.768-3.106-48.969-32.799-86.844-86.935-104.984-151.941h428.42c-18.141 65.003-56.019 119.136-104.991 151.936z"/></g></svg>