<svg id="Capa_1" enable-background="new 0 0 512 512" height="512" viewBox="0 0 512 512" width="512" xmlns="http://www.w3.org/2000/svg"><g><path d="m414.09 103.119c1.247-4.884.91-1.88.91-71.119 0-16.748-14.775-32-31-32h-256c-16.225 0-31 15.252-31 32 0 69.551-.346 66.201.91 71.119-14.46 8.315-24.91 24.083-24.91 40.881v320c0 25.121 22.401 48 47 48h272c24.599 0 47-22.401 47-47v-321c0-16.798-10.45-32.566-24.91-40.881zm-29.09-71.005v63.677c-.177.423-.786 1.032-1.209 1.209h-40.791v-67h40.426c.624.411 1.435 1.479 1.574 2.114zm-114 64.886v-67h42v67zm-72 0v-67h42v67zm-72-64.886c.139-.636.95-1.703 1.574-2.114h40.426v67h-40.791c-.423-.177-1.032-.786-1.209-1.209zm282 432.886c0 8.262-8.738 17-17 17h-272c-7.944 0-17-9.589-17-18v-320c0-8.262 8.738-17 17-17h272c8.262 0 17 8.738 17 17z"/><path d="m343.989 235.305c-20.449-12.868-48.603-10.928-71.88 2.256-.404-12.326-2.8-28.482-10.693-44.269-3.704-7.41-12.713-10.416-20.124-6.708-7.41 3.704-10.413 12.715-6.708 20.124 5.664 11.328 7.306 23.242 7.561 32.175-23.693-14.366-53.02-16.865-74.134-3.579-15.772 9.925-25.417 28.412-27.156 52.055-1.536 20.888 3.526 44.088 13.891 63.653 21.04 39.721 68.918 55.24 101.255 41.806 32.329 13.432 80.217-2.087 101.255-41.806 10.364-19.565 15.427-42.766 13.891-63.653-1.741-23.642-11.385-42.13-27.158-52.054zm-13.244 101.665c-15.095 28.497-50.462 36.588-66.756 26.335-4.885-3.073-11.096-3.072-15.979 0-16.293 10.252-51.66 2.162-66.756-26.335-15.225-28.741-13.896-65.81 2.734-76.274 14.573-9.169 44.429-2.391 59.641 19.789 5.938 8.655 18.766 8.708 24.74 0 15.212-22.178 45.068-28.96 59.641-19.789 16.632 10.464 17.96 47.533 2.735 76.274z"/><path d="m228.53 294.275c-8.284 0-15 6.716-15 15v6.895c0 8.284 6.716 15 15 15s15-6.716 15-15v-6.895c0-8.284-6.716-15-15-15z"/><path d="m283.686 294.275c-8.284 0-15 6.716-15 15v6.895c0 8.284 6.716 15 15 15s15-6.716 15-15v-6.895c0-8.284-6.716-15-15-15z"/></g></svg>