<svg id="Capa_1" enable-background="new 0 0 512.003 512.003" height="512" viewBox="0 0 512.003 512.003" width="512" xmlns="http://www.w3.org/2000/svg"><g><path d="m400.002 289h-27.446c.651-1.431 1.231-2.886 1.711-4.365.103-.313-1.763 6.016 40.069-136.214 6.262-19.512 1.351-37.515-13.156-48.29l-111.273-90.409c-9.173-8.439-25.091-9.722-33.905-9.722s-24.732 1.283-33.906 9.722l-111.273 90.409c-14.507 10.775-19.418 28.778-13.156 48.29 42.783 145.465 39.944 136.544 41.78 140.579h-27.187c-7.7-.154-15.263 5.705-15.302 15.628-.052 12.813.043-16.532.043 39.372 0 17.144 10.296 32.123 28.992 42.18 12.911 6.945 29.519 11.256 47.564 12.461l-20.229 95.243c-1.721 8.104 3.453 16.067 11.557 17.789 8.165 1.73 16.08-3.511 17.789-11.557l21.477-101.116h103.661l21.107 101.037c1.478 7.075 7.715 11.936 14.668 11.936 9.532 0 16.643-8.758 14.698-18.07l-19.9-95.257c18.068-1.2 34.699-5.513 47.625-12.465 18.696-10.057 28.992-25.036 28.992-42.18v-40c0-8.285-6.716-15.001-15-15.001zm-233.683-13.48c-42.518-144.563-39.937-135.802-40.052-136.154-3.516-10.822.892-14.024 2.551-15.23.461-.334 112.729-91.539 113.286-92.048 1.482-.748 6.382-2.088 13.898-2.088s12.416 1.34 13.897 2.087c.557.509 112.825 91.713 113.286 92.048 1.659 1.206 6.067 4.408 2.551 15.23-.103.313 1.78-6.075-40.052 136.154-2.171 6.334-11.516 13.48-17.683 13.48h-144c-6.166.001-15.511-7.145-17.682-13.479zm218.683 68.48c0 12.073-22.904 25-57 25-16.641 0-127.252 0-144 0-34.096 0-57-12.927-57-25 0-11.146-.007-19.192-.016-25h258.016z"/></g></svg>