<svg id="Capa_1" enable-background="new 0 0 512.023 512.023" height="512" viewBox="0 0 512.023 512.023" width="512" xmlns="http://www.w3.org/2000/svg"><g><path d="m456.398 343.256c13.974-14.257 22.613-33.763 22.613-55.256 0-43.561-35.439-79-79-79h-129v-34h73c21.099 0 40.548-6.479 54.764-18.244 32.405-26.818 32.407-78.691 0-105.512-14.216-11.765-33.665-18.244-54.764-18.244h-73v-18c0-8.284-6.716-15-15-15s-15 6.716-15 15v18h-73c-21.099 0-40.548 6.479-54.764 18.244-32.405 26.818-32.407 78.691 0 105.512 14.216 11.765 33.665 18.244 54.764 18.244h73v34h-127.319c-43.561 0-79 35.439-79 79 0 21.255 8.453 40.562 22.155 54.776-32.623 12.559-55.836 44.23-55.836 81.224 0 47.295 38.588 89.101 87.179 88h335.643c48.307 1.131 87.179-40.443 87.179-88-.001-36.53-22.635-67.87-54.614-80.744zm-337.387-239.256c0-28.322 24.61-41 49-41h176c24.39 0 49 12.678 49 41s-24.61 41-49 41h-176c-24.39 0-49-12.678-49-41zm-5.319 135h286.319c27.019 0 49 21.981 49 49s-21.981 49-49 49h-286.319c-27.019 0-49-21.981-49-49s21.981-49 49-49zm310.698 243.005c-.268-.006-336.359-.009-336.758 0-31.296.744-56.621-26.943-56.621-58.005 0-31.43 25.57-57 57-57h336c31.43 0 57 25.57 57 57 0 31.052-25.318 58.753-56.621 58.005z"/></g></svg>