<svg id="Capa_1" enable-background="new 0 0 512.015 512.015" height="512" viewBox="0 0 512.015 512.015" width="512" xmlns="http://www.w3.org/2000/svg"><g><path d="m511.421 19.143c3.23-11.297-7.239-21.782-18.548-18.548-203.287 58.156-189.627 54.245-190.214 54.417-1.881.54-3.694 1.49-5.212 2.709-.907.728 9.785-9.877-293.036 291.906-5.872 5.851-5.882 15.367-.018 21.231l136.765 136.765c5.853 5.854 15.369 5.864 21.231-.019 310.844-311.913 293.074-292.931 294.615-298.25.823-2.833 54.382-190.092 54.417-190.211zm-59.397 24.342 16.507 16.507-33.347 116.566-99.727-99.727zm-367.624 268.781 222.413-221.651 46.854 46.854-222.032 222.031zm67.345 163.519-115.515-115.514 26.921-26.829 115.423 115.423zm48.005-48.17-46.902-46.902 222.032-222.032 46.521 46.521z"/></g></svg>