<svg id="Capa_1" enable-background="new 0 0 512 512" height="512" viewBox="0 0 512 512" width="512" xmlns="http://www.w3.org/2000/svg"><g><path d="m333.885 15.403c-.039-.016-.079-.031-.119-.047-24.749-9.382-50.98-15.356-77.766-15.356-124.344 0-223 106.208-223 216 0 8.284 6.716 15 15 15h77.204c-18.191 23.644-28.204 51.826-28.204 81v177c0 4.129 0 11.039 5.258 16.702 5.846 6.298 13.881 6.298 17.742 6.298h272c3.861 0 11.896 0 17.742-6.298 5.258-5.663 5.258-12.573 5.258-16.702v-177c0-29.357-9.844-57.335-28.136-81h77.136c8.284 0 15-6.716 15-15 0-85.605-59.994-168.208-145.115-200.597zm1.91 33.36c18.556 8.612 35.922 20.215 51.212 34.218-5.484 3.867-12.09 6.019-19.007 6.019-20.999 0-36.83-19.51-32.205-40.237zm-142.795 152.237h-66c0-20.495 15.756-34 33-34 17.171 0 33 13.424 33 34zm30 281v-34c0-15.248 2.39-65 33.14-65 11.694 0 18.863 3.943 23.971 13.183 5.576 10.095 9.18 30.435 9.18 51.729l-.202 34.088zm162-170v170h-65.911l.201-34c0-10.072-.932-44.621-12.922-66.327-10.369-18.758-27.738-28.673-50.228-28.673-21.628 0-39.52 11.438-50.379 32.206-10.547 20.171-12.761 45.281-12.761 62.794v34h-66v-170c0-30.431 14.335-59.689 39.492-81h179.011c24.207 20.52 39.497 48.912 39.497 81zm-162-111c0-37.51-29.648-64-63-64-33.353 0-63 26.49-63 64h-33.312c8.514-92.688 94.726-171 192.312-171 16.426 0 33.719 2.732 51.583 8.112-11.955 40.446 18.525 80.888 60.417 80.888 14.668 0 28.601-5.069 39.675-14.057 23.007 28.507 37.284 62.296 40.587 96.057z"/><path d="m238.71 85.069c-2.509-11.962-16.992-16.008-25.32-7.68-9.462 9.761-2.548 25.611 10.61 25.611 9.092 0 16.529-8.203 14.71-17.931z"/><path d="m326.71 149.069c-2.51-11.966-16.98-15.991-25.32-7.68-8.923 9.205-3.417 24.237 9.13 25.54 10.395.85 18.019-8.08 16.19-17.86z"/></g></svg>