<svg id="Capa_1" enable-background="new 0 0 512.012 512.012" height="512" viewBox="0 0 512.012 512.012" width="512" xmlns="http://www.w3.org/2000/svg"><g><path d="m497.337 144.843c-15.152-.34-27.529-1.997-38.327-12.795-14.237-14.236-21.565-29.664-20.107-42.326 1.108-9.62-7.058-17.727-16.617-16.617-12.804 1.464-28.324-5.865-42.592-20.133-10.597-10.597-14.007-20.529-12.584-36.646.572-6.48-3.099-12.592-9.09-15.131-5.991-2.538-12.935-.926-17.193 3.994-27.417 31.672-41.231 77.224-32.896 118.027-50.014-18.837-111.684-9.688-153.046 31.674-41.109 41.108-50.613 102.771-31.672 153.052-40.925-8.36-86.451 5.555-118.029 32.891-4.919 4.258-6.532 11.202-3.994 17.193s8.653 9.676 15.13 9.089c16.049-1.417 25.967 2.008 36.596 12.636 14.294 14.294 21.651 29.8 20.184 42.54-1.105 9.59 7.027 17.725 16.617 16.617 12.603-1.454 28.012 5.896 42.274 20.158 10.691 10.692 12.506 23.097 12.847 38.277.296 13.183 16.322 19.552 25.603 10.27 32.797-32.797 44.695-78.415 35.432-118.162 15.722 5.679 32.631 8.652 50.128 8.652 80.13 0 142.096-61.849 142.096-142.097 0-17.501-2.974-34.413-8.655-50.137 39.706 9.254 85.296-2.554 118.165-35.423 9.304-9.304 2.919-25.309-10.27-25.603zm-329.048 315.334c-3.479-8.288-8.529-15.769-15.085-22.324-15.977-15.977-33.492-25.708-50.647-28.378-2.642-17.279-12.393-34.902-28.429-50.938-5.857-5.857-11.92-10.476-18.375-13.919 33.469-13.862 73.719-12.908 99.13 12.504 26.811 26.81 30.963 68.413 13.406 103.055zm7.808-124.267c-28.672-28.672-38.027-71.913-28.072-110.097l138.168 138.169c-38.183 9.954-81.424.599-110.096-28.072zm139.971 15.521-155.492-155.493c8.69-14.349 20.539-26.381 35.35-35.353l155.496 155.495c-8.674 14.32-20.512 26.362-35.354 35.351zm47.906-65.224-138.174-138.174c38.409-10.016 81.575-.459 110.104 28.07 28.674 28.674 38.028 71.919 28.07 110.104zm-6.857-131.317c-25.395-25.395-26.362-65.609-12.53-99.066 3.437 6.456 8.045 12.514 13.893 18.361 16.024 16.024 33.66 25.763 50.979 28.389 2.656 17.192 12.375 34.725 28.338 50.687 6.516 6.516 13.944 11.545 22.171 15.021-34.606 17.389-75.686 13.772-102.851-13.392z"/></g></svg>