<svg id="Capa_1" enable-background="new 0 0 512 512" height="512" viewBox="0 0 512 512" width="512" xmlns="http://www.w3.org/2000/svg"><g><path d="m367 104c0-56.825-46.345-104-103-104h-16c-56.622 0-103 47.147-103 104.009.048 85.374.109 194.509.157 279.991 0 3.305 0 11.043 5.662 16.899 5.895 6.101 13.804 6.101 17.181 6.101h73v90c0 8.284 6.716 15 15 15s15-6.716 15-15v-90h73c3.377 0 11.286 0 17.182-6.101 5.662-5.856 5.662-13.595 5.662-16.891.098-175.752.063-113.336.156-280.008zm-30.035 62.008-161.893 67.467-.035-63.25 161.961-63.377zm-161.874 99.961 161.856-67.452-.036 63.519-161.785 67.411zm72.909-235.969h16c30.128 0 56.678 19.653 67.642 46.729l-156.623 61.288-.019-34.017c0-40.112 33.43-74 73-74zm-72.847 347-.008-15.062 161.749-67.396-.047 82.458z"/></g></svg>