<svg id="Capa_1" enable-background="new 0 0 512 512" height="512" viewBox="0 0 512 512" width="512" xmlns="http://www.w3.org/2000/svg"><g><path d="m480.007 337h-209c0-10.63 0-96.291 0-106h209c6.395 0 12.086-4.054 14.176-10.097 2.091-6.044.119-12.747-4.908-16.698l-218.268-171.496v-17.709c0-8.284-6.716-15-15-15s-15 6.716-15 15v19.187l-220.081 241.242c-8.759 9.6-1.941 25.109 11.081 25.109h209v36.462h-209c-8.284 0-15 6.716-15 15v64c0 49.333 53.649 96 126.932 96h224.137c32.812 0 64.072-9.683 88.023-27.264 24.727-18.15 38.908-43.204 38.908-68.736v-64c0-8.284-6.716-15-15-15zm-209-136v-130.138l165.63 130.138zm-205.012 69.538 175.012-191.84v191.84zm399.012 145.462c0 35.159-45.295 66-96.932 66h-224.136c-51.637 0-96.932-30.841-96.932-66v-49h418z"/><path d="m160.007 409h-32c-8.284 0-15 6.716-15 15s6.716 15 15 15h32c8.284 0 15-6.716 15-15s-6.716-15-15-15z"/><path d="m254.527 409.069c-8.411.891-14.272 8.333-13.45 16.41.837 7.918 7.658 14.166 16.41 13.45 7.845-.813 14.171-7.583 13.45-16.41-.85-8.183-8.017-14.219-16.41-13.45z"/><path d="m352.007 439h32c8.284 0 15-6.716 15-15s-6.716-15-15-15h-32c-8.284 0-15 6.716-15 15s6.716 15 15 15z"/></g></svg>