<svg id="Capa_1" enable-background="new 0 0 512 512" height="512" viewBox="0 0 512 512" width="512" xmlns="http://www.w3.org/2000/svg"><g><path d="m411.107 182.136c-7.508-3.51-16.434-.27-19.941 7.234l-82.39 176.218c-14.517-44.411-56.334-76.588-105.533-76.588-31.921 0-60.732 13.549-81 35.191v-85.77c40.217-3.026 67.259-17.654 81-27.275 15.388 10.773 47.43 27.854 96 27.854 8.284 0 15-6.716 15-15v-112c0-61.757-49.794-112-111-112s-111 50.243-111 112v288c0 61.757 49.794 112 111 112 46.306 0 86.073-28.762 102.694-69.508l112.405-240.415c3.508-7.505.269-16.432-7.235-19.941zm-207.864-53.136c-9.374 0-17-7.626-17-17s7.626-17 17-17 17 7.626 17 17-7.626 17-17 17zm0-99c44.663 0 81 36.785 81 82v96.344c-35.338-3.113-57.177-16.622-66-23.3v-28.513c18.58-6.276 32-23.86 32-44.531 0-25.916-21.084-47-47-47s-47 21.084-47 47c0 20.671 13.42 38.255 32 44.531v28.513c-8.823 6.678-30.662 20.187-66 23.3v-96.344c0-45.215 36.337-82 81-82zm0 452c-44.663 0-81-36.785-81-82 0-44.663 36.337-81 81-81 56.914 0 96.736 57.702 75.075 111.733-11.587 29.569-40.922 51.267-75.075 51.267z"/></g></svg>