<svg id="Capa_1" enable-background="new 0 0 512 512" height="512" viewBox="0 0 512 512" width="512" xmlns="http://www.w3.org/2000/svg"><g><path d="m256 0c-83.262 0-151 68.187-151 152v208c0 83.813 67.738 152 151 152s151-68.187 151-152v-208c0-83.813-67.738-152-151-152zm38.531 325.518c29.481-15.571 56.792-34.757 82.469-57.926v76.277c-26.344-3.848-54.07-9.296-82.469-18.351zm-38.531-295.518c66.72 0 121 54.729 121 122v73.956c-36.402 37.384-76.154 65.242-121.198 84.938-40.228-17.724-81.138-44.217-120.802-84.936v-73.958c0-67.271 54.28-122 121-122zm0 452c-66.72 0-121-54.729-121-122v-92.403c32.717 29.525 68.045 52.546 107.204 69.924 39.384 17.478 82.097 29.134 133.988 36.537-6.936 60.673-58.188 107.942-120.192 107.942z"/><path d="m256 247c47.972 0 87-39.028 87-87s-39.028-87-87-87-87 39.028-87 87 39.028 87 87 87zm0-144c31.43 0 57 25.57 57 57s-25.57 57-57 57-57-25.57-57-57 25.57-57 57-57z"/></g></svg>