<svg id="Capa_1" enable-background="new 0 0 512.029 512.029" height="512" viewBox="0 0 512.029 512.029" width="512" xmlns="http://www.w3.org/2000/svg"><g><path d="m448.189 63.854c-85.108-85.108-219.511-85.17-304.681 0-81.19 81.19-82.92 210.722-9.86 294.189l-129.205 128.344c-5.877 5.838-5.909 15.335-.071 21.213 5.83 5.868 15.326 5.918 21.213.07l129.325-128.462c38.998 33.78 88.47 52.217 140.938 52.217 123.096 0 216.166-100.723 216.166-215.197.001-57.102-22.666-111.216-63.825-152.374zm-21.213 283.532c-71.885 71.884-189.528 72.181-261.757.486-72.177-71.067-73.612-189.69-.498-262.805 73.526-73.526 188.724-73.531 262.255 0 73.548 73.548 73.548 188.772 0 262.319z"/><path d="m397.758 114.349c-56.998-56.999-146.388-57.057-203.444 0-57.002 57.001-57.055 146.39 0 203.444 56.999 57 146.388 57.057 203.444 0 57.002-57.001 57.055-146.389 0-203.444zm-21.213 182.232c-45.146 45.145-115.873 45.145-161.018 0-45.145-45.146-45.145-115.873 0-161.019 45.144-45.143 115.871-45.146 161.018 0 45.145 45.146 45.145 115.873 0 161.019z"/><path d="m240.242 161.594c-29.57 29.57-29.538 82.184 0 111.723 29.567 29.567 82.182 29.54 111.723 0 29.57-29.571 29.538-82.184 0-111.723-34.435-34.435-80.715-31.008-111.723 0zm90.509 90.51c-17.811 17.808-51.488 17.808-69.296 0-17.871-17.871-17.838-51.459 0-69.297 19.967-19.967 47.249-22.046 69.296 0 17.873 17.874 17.835 51.462 0 69.297z"/></g></svg>