<svg id="Capa_1" enable-background="new 0 0 512 512" height="512" viewBox="0 0 512 512" width="512" xmlns="http://www.w3.org/2000/svg"><g><path d="m464 482h-29.872l-140.808-349.509c20.325-13.185 34.68-36.127 34.68-60.491 0-37.683-34.317-72-72-72-37.682 0-72 34.317-72 72 0 24.363 14.355 47.306 34.68 60.49-1.378 3.419-140.662 349.145-140.809 349.51h-29.871c-8.284 0-15 6.716-15 15s6.716 15 15 15h416c8.284 0 15-6.716 15-15s-6.716-15-15-15zm-208-452c21.196 0 42 20.804 42 42s-20.804 42-42 42-42-20.804-42-42 20.804-42 42-42zm-22.799 226.074c0 27.806-23.334 50.433-51.676 48.922l34.661-86.033c10.634 9.155 17.015 22.58 17.015 37.111zm-122.987 225.926 59.713-148.217c48.737 8.899 93.274-28.677 93.274-77.709 0-26.888-13.526-51.431-35.42-65.893l18.894-46.898c6.368.95 12.206.961 18.649 0l136.461 338.717z"/><path d="m301.394 421.394c-9.46 9.458-2.66 25.616 10.616 25.616 13.244 0 20.083-16.131 10.606-25.606-5.761-5.762-15.296-5.937-21.222-.01z"/><path d="m216 369c-25.916 0-47 21.084-47 47s21.084 47 47 47 47-21.084 47-47-21.084-47-47-47zm0 64c-9.374 0-17-7.626-17-17s7.626-17 17-17 17 7.626 17 17-7.626 17-17 17z"/><path d="m288 359c13.351 0 20.001-16.209 10.6-25.61-5.918-5.918-15.452-5.756-21.21 0-9.455 9.753-2.585 25.61 10.61 25.61z"/></g></svg>