<svg id="Capa_1" enable-background="new 0 0 512.009 512.009" height="512" viewBox="0 0 512.009 512.009" width="512" xmlns="http://www.w3.org/2000/svg"><g><path d="m478.899 479.996-23.892-415.487c-.268-16.864-14.069-30.5-30.996-30.5h-48c-17.094 0-31 13.906-31 31 0 128.614.073 120.303-.131 121h-33.869v-50c0-13.327-9.673-23-23-23h-17c0-9.41 0-82.21 0-98.004 0-10.156-9.993-17.488-19.759-14.216-1.491.501.234-.287-33.949 16.804-10.881 5.439-11.085 20.948-.329 26.663l24.037 12.77v55.983h-17c-13.327 0-23 9.673-23 23v50h-33c-.663 0-1-.337-1-1v-120c0-17.094-13.906-31-31-31h-48c-16.927 0-30.729 13.636-30.996 30.5-25.513 443.69-24.092 417.484-23.961 419.341 1.045 15.79 15.245 28.159 32.327 28.159h381.26c19.3 0 33.78-15.516 32.258-32.013zm-287.888 2.013v-33.061c0-30.053 20.047-55.939 48.75-62.951 42.442-10.362 81.25 21.698 81.25 63.012v33zm160 0v-33c0-60.627-56.869-107.182-118.369-92.154-42.175 10.303-71.631 48.173-71.631 92.094v33.061c-101.755 0-96.558.292-97.918-.62.266-4.634 23.918-415.702 23.918-416.38 0-.301.098-1 1-1h48c.663 0 1 .337 1 1v120c0 17.094 13.906 31 31 31h48c8.284 0 15-6.716 15-15v-58h50v58c0 8.284 6.716 15 15 15h49.07c17.063 0 29.93-13.327 29.93-31v-120c0-.663.337-1 1-1h48c1.153 0 .973.974 1.024 1.861l23.894 415.519c-1.318.883 4.103.619-97.918.619z"/><path d="m366.719 242.593c-4.205-2.104-9.151-2.112-13.364-.026-.377.187-9.331 4.646-18.325 11.371-14.61 10.922-22.019 22.386-22.019 34.071v48c0 8.284 6.716 15 15 15h64c8.284 0 15-6.716 15-15v-48c0-23.449-30.839-40.691-40.292-45.416zm10.292 78.416h-34v-32.735c.962-3.306 8.484-9.822 16.972-15.076 8.478 5.277 16.013 11.805 17.028 15.112z"/><path d="m158.719 242.593c-4.205-2.104-9.151-2.112-13.364-.026-.377.187-9.331 4.646-18.325 11.371-14.61 10.922-22.019 22.386-22.019 34.071v48c0 8.284 6.716 15 15 15h64c8.284 0 15-6.716 15-15v-48c0-23.449-30.839-40.691-40.292-45.416zm10.292 78.416h-34v-32.735c.962-3.306 8.484-9.822 16.972-15.076 8.478 5.277 16.013 11.805 17.028 15.112z"/></g></svg>