<svg id="Capa_1" enable-background="new 0 0 511.996 511.996" height="512" viewBox="0 0 511.996 511.996" width="512" xmlns="http://www.w3.org/2000/svg"><g><path d="m507.602 32.272-27.874-27.874c-3.855-3.855-9.502-5.314-14.74-3.813l-39.078 11.204c-5.062 1.451-8.992 5.45-10.355 10.536l-10.203 38.076c-1.387 5.177.093 10.7 3.882 14.489l3.334 3.334-24.488 24.483c-67.612-56.063-170.146-47.978-237.638 10.256l-45.409-45.409c-5.857-5.857-15.355-5.857-21.213 0-105.473 105.473-110.143 261.133-21.14 361.023l-34.821 34.821c-5.858 5.857-5.858 15.355 0 21.213 5.859 5.859 15.355 5.858 21.213 0l34.85-34.85c101.895 90.336 257.322 81.621 360.524-21.583 5.858-5.857 5.858-15.355 0-21.213l-48.593-48.593c58.979-67.814 68.736-167.557 13.435-234.445l24.495-24.49 3.327 3.327c2.85 2.851 6.681 4.394 10.607 4.394 2.735 0 .752.328 41.958-10.713 5.086-1.363 9.085-5.294 10.537-10.355l11.203-39.077c1.502-5.242.042-10.885-3.813-14.741zm-477.539 225.894 223.649 223.649c-125.59 2.805-226.407-98.562-223.649-223.649zm261.991 219.565-257.93-257.93c8.348-43.666 29.159-85.089 60.591-120.139l317.62 317.62c-35.815 32.088-77.56 52.289-120.281 60.449zm82.528-140.629c-58.858-58.858 120.47 120.469-202.853-202.853 62.006-51.916 153.403-53.072 206.248-.228 52.143 52.144 49.702 140.534-3.395 203.081zm99.131-267.438-21.514 5.764c-2.859-2.859-4.524-4.524-15.626-15.626l5.764-21.514 22.426-6.429 15.379 15.379z"/><path d="m109.064 205.733c-5.857 5.857-5.857 15.355 0 21.213l22.627 22.627c5.859 5.859 15.355 5.858 21.213 0 5.857-5.857 5.857-15.355 0-21.213l-22.627-22.627c-5.857-5.858-15.354-5.858-21.213 0z"/><path d="m207.205 317.679c7.723-.801 13.53-7.266 13.53-14.931 0-8.268-6.721-15-15-15-8.291 0-15 6.738-15 15 0 8.821 7.638 15.828 16.47 14.931z"/><path d="m280.682 398.916c5.859 5.859 15.355 5.858 21.213 0 5.857-5.857 5.857-15.355 0-21.213l-22.627-22.627c-5.857-5.857-15.355-5.857-21.213 0-5.857 5.857-5.857 15.355 0 21.213z"/></g></svg>