<svg id="Capa_1" enable-background="new 0 0 512.001 512.001" height="512" viewBox="0 0 512.001 512.001" width="512" xmlns="http://www.w3.org/2000/svg"><g><path d="m504.232 237.52-57.232-59.559v-89.961c0-14.832-8.168-23-23-23h-89.961l-59.558-57.231c-10.492-10.367-26.484-10.35-36.961 0l-59.559 57.231h-89.961c-14.832 0-23 8.168-23 23v89.12l-57.274 60.443c-10.312 10.485-10.306 26.441.043 36.918l57.231 59.558v89.961c0 14.832 8.168 23 23 23h89.961l59.558 57.231c10.494 10.366 26.485 10.351 36.961 0l59.559-57.231h89.961c14.832 0 23-8.168 23-23v-89.961l57.231-59.559c10.368-10.492 10.351-26.485.001-36.96zm-83.047 80.087c-2.686 2.794-4.185 6.518-4.185 10.393v89h-89c-3.875 0-7.6 1.499-10.394 4.185l-61.606 59.2-61.607-59.2c-2.793-2.686-6.518-4.185-10.393-4.185h-89v-89c0-3.875-1.5-7.6-4.184-10.394l-59.216-61.622 59.288-62.567c2.64-2.786 4.112-6.479 4.112-10.317v-88.1h89c3.875 0 7.599-1.499 10.393-4.185l61.607-59.199 61.606 59.2c2.795 2.685 6.519 4.184 10.394 4.184h89v89c0 3.875 1.499 7.6 4.185 10.394l59.2 61.606z"/><path d="m256 113c-78.851 0-143 64.149-143 143s64.149 143 143 143 143-64.149 143-143-64.149-143-143-143zm0 256c-62.309 0-113-50.691-113-113s50.691-113 113-113 113 50.691 113 113-50.691 113-113 113z"/></g></svg>