<svg id="Capa_1" enable-background="new 0 0 512 512" height="512" viewBox="0 0 512 512" width="512" xmlns="http://www.w3.org/2000/svg"><g><path d="m347.74 9.507c-7.728-2.98-16.411.866-19.394 8.597-2.981 7.729.868 16.412 8.597 19.394 30.966 11.945 57.953 30.258 79.991 52.968 2.5 99.246-62.494 142.036-160.934 142.036-98.86 0-163.386-43.124-160.937-141.942 22.183-22.88 49.291-41.221 79.993-53.063 7.729-2.981 11.579-11.664 8.598-19.393-2.981-7.73-11.665-11.579-19.393-8.598-97.609 37.65-164.261 132.957-164.261 237.996 0 140.96 115.049 256 256 256 140.96 0 256-115.049 256-256 0-104.879-66.625-200.341-164.26-237.995zm-91.74 252.995c97.281 0 175.699-40.724 189.026-136.634 22.981 35.736 35.974 77.864 35.974 121.634 0 124.065-100.935 225-225 225s-225-100.935-225-225c0-43.858 13.057-85.912 35.986-121.551 13.348 95.727 91.578 136.551 189.014 136.551z"/></g></svg>