<svg id="Capa_1" enable-background="new 0 0 512.016 512.016" height="512" viewBox="0 0 512.016 512.016" width="512" xmlns="http://www.w3.org/2000/svg"><g><path d="m481.008 249h-42.598c-7.097-90.177-77.885-160.316-167.402-167.398v-51.602h17c8.284 0 15-6.716 15-15s-6.716-15-15-15h-64c-8.284 0-15 6.716-15 15s6.716 15 15 15h17v51.602c-90.579 7.166-162.458 79.041-167.683 171.593l-51.107 17.615c-13.104 3.923-22.21 17.286-22.21 32.71v109.61c0 18.676 13.458 33.87 30 33.87h28.414c2.924 15.445 10.34 29.733 21.611 41.248 31.019 31.687 80.923 31.695 111.949 0 11.271-11.515 18.687-25.803 21.611-41.248h84.828c6.868 36.273 38.669 65 77.586 65 38.892 0 70.714-28.707 77.586-65h27.414c16.804 0 31-15.511 31-33.87v-130.26c.001-18.359-14.195-33.87-30.999-33.87zm-72.693 0h-169.489c2.371-44.936-15.37-91.051-50.59-122.703 20.326-9.816 43.29-15.297 67.772-15.297 80.726 0 144.994 59.501 152.307 138zm-246.93-106.053c33.718 26.12 50.105 67.661 47.386 106.053h-105.069c4.049-43.474 25.574-81.113 57.683-106.053zm-25.377 339.053c-27.019 0-49-22.43-49-50 0-27.019 21.981-49 49-49s49 21.981 49 49c0 27.57-21.981 50-49 50zm240 0c-27.019 0-49-22.43-49-50 0-27.019 21.981-49 49-49s49 21.981 49 49c0 27.57-21.981 50-49 50zm106-68.87c-.011 2.141-1.749 3.87-3.889 3.87h-24.557c-7.029-36.41-39.122-64-77.553-64s-70.524 27.59-77.553 64h-84.893c-7.029-36.41-39.122-64-77.553-64s-70.524 27.59-77.553 64h-24.567c-2.129 0-3.875-1.742-3.882-3.87v-109.61c.008-2.197 1.398-4.146 3.475-4.861 4.426-1.524 17.613-6.07 57.038-19.659h387.483c2.137 0 3.983 1.672 4.004 3.808v.062z"/></g></svg>